<svg width="184" height="191" viewBox="0 0 184 191" fill="none" xmlns="http://www.w3.org/2000/svg">
<path d="M107.543 186.409C102.716 192.496 92.9288 189.161 92.8125 181.389L91.1117 67.7162H167.446C181.272 67.7162 188.983 83.7063 180.386 94.5487L107.543 186.409Z" fill="url(#paint0_linear)"/>
<path d="M107.543 186.409C102.716 192.496 92.9288 189.161 92.8125 181.389L91.1117 67.7162H167.446C181.272 67.7162 188.983 83.7063 180.386 94.5487L107.543 186.409Z" fill="url(#paint1_linear)" fill-opacity="0.2"/>
<path d="M76.4984 3.50057C81.3255 -2.58675 91.1129 0.748663 91.2292 8.52061L91.9745 122.193H16.5957C2.76908 122.193 -4.94226 106.203 3.65552 95.3605L76.4984 3.50057Z" fill="#3ECF8E"/>
<path d="M106.083 63.75H106.583V63.25V42.5H155.167V98.1667H106.583V77.4167V76.9167H106.083H91.9167H91.4167V77.4167V134.083V134.583H91.9167H106.083H106.583V134.083V113.333H155.167V169H106.583V148.25V147.75H106.083H78.25V77.4167V76.9167H77.75H63.5833H63.0833V77.4167V98.1667H14.5V42.5H63.0833V63.25V63.75H63.5833H106.083ZM49.4167 85H49.9167V84.5V56.1667V55.6667H49.4167H28.1667H27.6667V56.1667V84.5V85H28.1667H49.4167ZM120.25 126.5H119.75V127V155.333V155.833H120.25H141.5H142V155.333V127V126.5H141.5H120.25ZM120.25 55.6667H119.75V56.1667V84.5V85H120.25H141.5H142V84.5V56.1667V55.6667H141.5H120.25Z" fill="white" stroke="#3ECF8E"/>
<defs>
<linearGradient id="paint0_linear" x1="91.1117" y1="92.9203" x2="158.981" y2="121.348" gradientUnits="userSpaceOnUse">
<stop stop-color="#249361"/>
<stop offset="1" stop-color="#3ECF8E"/>
</linearGradient>
<linearGradient id="paint1_linear" x1="61.0336" y1="51.6848" x2="92.0363" y2="109.97" gradientUnits="userSpaceOnUse">
<stop/>
<stop offset="1" stop-opacity="0"/>
</linearGradient>
</defs>
</svg>
